<?xml version="1.0" encoding="utf-8"?>
<!-- Generator: Adobe Illustrator 15.0.0, SVG Export Plug-In  -->
<!DOCTYPE svg PUBLIC "-//W3C//DTD SVG 1.1//EN" "http://www.w3.org/Graphics/SVG/1.1/DTD/svg11.dtd" [
	<!ENTITY ns_flows "http://ns.adobe.com/Flows/1.0/">
]>
<svg version="1.1"
	 xmlns="http://www.w3.org/2000/svg" xmlns:xlink="http://www.w3.org/1999/xlink" xmlns:a="http://ns.adobe.com/AdobeSVGViewerExtensions/3.0/"
	 x="0px" y="0px" width="304px" height="336px" viewBox="-0.337 -0.166 304 336" enable-background="new -0.337 -0.166 304 336"
	 xml:space="preserve">
<defs>
</defs>
<path fill="#FFFFFF" d="M242.288,29.191V11.744C242.288,5.258,237.03,0,230.543,0s-11.744,5.258-11.744,11.744v17.447H83.205V11.744
	C83.205,5.258,77.947,0,71.461,0c-6.486,0-11.744,5.258-11.744,11.744v17.447H0v40.667v4v28.182v4v229.455h303.333V103.706v-1.667
	V73.858v-1.667v-43H242.288z M218.799,33.611v13.026c0,6.486,5.258,11.744,11.744,11.744s11.744-5.258,11.744-11.744V33.993
	c3.308,3.157,5.379,7.598,5.379,12.532c0,9.573-7.76,17.333-17.333,17.333S213,56.098,213,46.524
	C213,41.387,215.249,36.785,218.799,33.611z M59.717,33.686v12.952c0,6.486,5.257,11.744,11.744,11.744
	c6.486,0,11.744-5.258,11.744-11.744v-12.72c3.355,3.161,5.462,7.633,5.462,12.607c0,9.573-7.76,17.333-17.333,17.333
	S54,56.098,54,46.524C54,41.426,56.214,36.857,59.717,33.686z M69.879,311.676H23.818v-46.061h46.061V311.676z M69.879,241.797
	H23.818v-46.061h46.061V241.797z M69.879,171.918H23.818v-46.061h46.061V171.918z M139.758,311.676H93.697v-46.061h46.061V311.676z
	 M139.758,241.797H93.697v-46.061h46.061V241.797z M139.758,171.918H93.697v-46.061h46.061V171.918z M209.637,311.676h-46.061
	v-46.061h46.061V311.676z M209.637,241.797h-46.061v-46.061h46.061V241.797z M209.637,171.918h-46.061v-46.061h46.061V171.918z
	 M279.515,311.676h-46.06v-46.061h46.06V311.676z M279.468,221.78c0.463,11.5-5.498,19.697-13.508,23.396
	c-3.378,1.559-7.278,2.389-12.395,1.949c-5.498-0.473-10.503-3.514-13.647-6.686c-4.212-4.244-6.799-10.494-6.406-18.521
	c-2.658-1.307-5.309-2.264-7.242-4.318c-2.553-2.709-4.53-7.711-3.342-13.09c1.533-6.941,7.596-13.189,14.9-14.066
	c9.232-1.105,14.092,4.268,16.295,11.002c1.582-0.209,2.829,0.066,4.596,0c1.146-0.953,1.083-2.443,1.67-3.621
	c1.875-3.75,6.444-7.338,11.421-7.52c9.443-0.342,17.729,6.938,18.521,16.016C291.024,214.258,286.058,220.063,279.468,221.78z
	 M233.456,171.918v-46.061h46.06v46.061H233.456z M279.515,102.04H23.818V73.858h255.697V102.04z"/>
</svg>
