<?xml version="1.0" encoding="iso-8859-1"?>
<!-- Generator: Adobe Illustrator 16.0.0, SVG Export Plug-In . SVG Version: 6.00 Build 0)  -->
<!DOCTYPE svg PUBLIC "-//W3C//DTD SVG 1.1//EN" "http://www.w3.org/Graphics/SVG/1.1/DTD/svg11.dtd">
<svg version="1.1" id="Capa_1" xmlns="http://www.w3.org/2000/svg" xmlns:xlink="http://www.w3.org/1999/xlink" x="0px" y="0px"
	 width="32.101px" height="40.406px" viewBox="0 0 32.101 40.406" style="enable-background:new 0 0 32.101 40.406;"
	 xml:space="preserve">
<g>
	<path d="M0,0v34.713h32.101V0H0z M10.171,1.768h11.76v1.777h-11.76V1.768z M6.522,31.332c-1.541,0-2.789-1.248-2.789-2.789
		c0-1.539,1.248-2.789,2.789-2.789s2.788,1.25,2.788,2.789C9.311,30.084,8.063,31.332,6.522,31.332z M25.755,31.332
		c-1.539,0-2.788-1.248-2.788-2.789c0-1.539,1.249-2.789,2.788-2.789c1.542,0,2.79,1.25,2.79,2.789
		C28.545,30.084,27.297,31.332,25.755,31.332z M29.301,19.127H2.8v-13.9h26.501V19.127z"/>
	<rect x="2.24" y="35.087" width="5.786" height="5.319"/>
	<rect x="24.262" y="35.087" width="5.787" height="5.319"/>
</g>
<g>
</g>
<g>
</g>
<g>
</g>
<g>
</g>
<g>
</g>
<g>
</g>
<g>
</g>
<g>
</g>
<g>
</g>
<g>
</g>
<g>
</g>
<g>
</g>
<g>
</g>
<g>
</g>
<g>
</g>
</svg>
