<?xml version="1.0" encoding="utf-8"?>
<!-- Generator: Adobe Illustrator 15.0.0, SVG Export Plug-In  -->
<!DOCTYPE svg PUBLIC "-//W3C//DTD SVG 1.1//EN" "http://www.w3.org/Graphics/SVG/1.1/DTD/svg11.dtd" [
	<!ENTITY ns_flows "http://ns.adobe.com/Flows/1.0/">
]>
<svg version="1.1"
	 xmlns="http://www.w3.org/2000/svg" xmlns:xlink="http://www.w3.org/1999/xlink" xmlns:a="http://ns.adobe.com/AdobeSVGViewerExtensions/3.0/"
	 x="0px" y="0px" width="205px" height="287px" viewBox="-0.125 -0.256 205 287" enable-background="new -0.125 -0.256 205 287"
	 xml:space="preserve">
<defs>
</defs>
<rect fill="#FFFFFF" width="204.833" height="35.333"/>
<rect x="22.488" y="251.332" fill="#FFFFFF" width="34.5" height="34.5"/>
<rect x="140.394" y="251.332" fill="#FFFFFF" width="34.5" height="34.5"/>
<path fill="#FFFFFF" d="M0,115.333V246h204.833V115.333H0z M35.238,206.167c-7.042,0-12.75-5.709-12.75-12.75
	c0-7.042,5.708-12.75,12.75-12.75s12.75,5.708,12.75,12.75C47.988,200.458,42.28,206.167,35.238,206.167z M130.917,208.507h-57
	v-41.499h57V208.507z M168.25,205.356c-7.043,0-12.75-5.709-12.75-12.75c0-7.042,5.707-12.75,12.75-12.75
	c7.041,0,12.75,5.708,12.75,12.75C181,199.647,175.291,205.356,168.25,205.356z"/>
<path fill="#FFFFFF" d="M192.761,61.825c0.707,8.103-4.363,14.028-11.088,15.779c0.472,11.741-5.613,20.107-13.79,23.882
	c-3.446,1.591-7.429,2.438-12.651,1.99c-5.612-0.482-10.721-3.587-13.93-6.824c-4.299-4.332-6.941-10.711-6.54-18.906
	c-2.714-1.333-5.419-2.31-7.392-4.407c-2.606-2.766-4.624-7.871-3.412-13.362c1.565-7.084,7.753-13.462,15.21-14.357
	c9.423-1.128,14.383,4.355,16.631,11.23c1.617-0.213,2.89,0.068,4.691,0c1.171-0.972,1.106-2.495,1.707-3.696
	c1.912-3.829,6.576-7.491,11.656-7.677C183.494,45.13,191.953,52.56,192.761,61.825z M179.967,72.914
	c5.64-0.631,8.668-5.458,7.96-11.373c-0.71-5.929-6.902-11.89-13.93-11.23c-4.413,0.415-7.91,3.578-8.389,8.103
	c-0.133,1.27,0.449,2.952-0.426,4.265c-2.329-0.386-5.355-1.225-8.529-0.995c-2.038,0.149-3.883,1.04-5.544,0.853
	c0.445-8.103-3.706-13.233-11.657-12.083c-3.688,0.533-7.371,3.42-9.098,6.255c-2.986,4.9-2.459,11.578,1.991,14.642
	c2.179,1.501,4.743,1.424,8.244,1.848c-0.193,3.002-1.227,4.934-0.995,8.387c0.713,10.626,10.022,19.176,22.176,16.917
	c7.544-1.402,14.157-7.815,14.926-16.063c0.354-3.78-0.627-6.43-0.852-9.382C177.292,72.514,178.421,73.087,179.967,72.914z"/>
<rect y="35.333" fill="#FFFFFF" width="5.833" height="80"/>
<rect x="199" y="35.333" fill="#FFFFFF" width="5.833" height="80"/>
<rect x="140.006" y="96.16" transform="matrix(0.952 0.3062 -0.3062 0.952 39.7432 -38.3472)" fill="#FFFFFF" width="4.166" height="22.667"/>
<rect x="172.066" y="96.16" transform="matrix(-0.952 0.3062 -0.3062 -0.952 372.8478 156.4999)" fill="#FFFFFF" width="4.167" height="22.667"/>
</svg>
