<?xml version="1.0" encoding="utf-8"?>
<!-- Generator: Adobe Illustrator 15.0.0, SVG Export Plug-In  -->
<!DOCTYPE svg PUBLIC "-//W3C//DTD SVG 1.1//EN" "http://www.w3.org/Graphics/SVG/1.1/DTD/svg11.dtd" [
	<!ENTITY ns_flows "http://ns.adobe.com/Flows/1.0/">
]>
<svg version="1.1"
	 xmlns="http://www.w3.org/2000/svg" xmlns:xlink="http://www.w3.org/1999/xlink" xmlns:a="http://ns.adobe.com/AdobeSVGViewerExtensions/3.0/"
	 x="0px" y="0px" width="306px" height="305px" viewBox="-0.781 -0.102 306 305" enable-background="new -0.781 -0.102 306 305"
	 xml:space="preserve">
<defs>
</defs>
<path fill="#FFFFFF" d="M302.144,283.707c-1.784-1.784-4.224-2.608-6.832-2.537L140.19,126.047l22.168-22.167
	c7.512,3.98,13.2,5.185,15.642,2.743c2.442-2.442,1.238-8.13-2.742-15.644l9.021-9.02c7.513,3.98,13.2,5.184,15.643,2.742
	c5.691-5.691-8.373-28.983-31.414-52.024S122.172-4.427,116.481,1.264c-2.441,2.441-1.237,8.13,2.743,15.642l-9.021,9.021
	c-7.513-3.979-13.201-5.184-15.643-2.742c-2.441,2.442-1.238,8.13,2.743,15.643l-55.98,55.98c-7.513-3.98-13.201-5.185-15.643-2.742
	c-2.441,2.441-1.238,8.129,2.743,15.642l-11.518,11.517c-7.513-3.98-13.2-5.184-15.643-2.742
	c-5.691,5.691,8.374,28.983,31.415,52.024s46.332,37.105,52.023,31.414c2.442-2.441,1.238-8.129-2.741-15.643l11.517-11.517
	c7.512,3.981,13.2,5.185,15.642,2.743c2.441-2.442,1.238-8.13-2.742-15.643l19.671-19.671l155.12,155.121
	c-0.07,2.607,0.754,5.05,2.537,6.833c4.036,4.036,11.435,3.18,16.525-1.912C305.323,295.14,306.179,287.742,302.144,283.707z
	 M145.375,106.72l-38.654,38.654L55.81,94.463l38.654-38.654L145.375,106.72z"/>
</svg>
