<?xml version="1.0" encoding="utf-8"?>
<!-- Generator: Adobe Illustrator 15.0.0, SVG Export Plug-In  -->
<!DOCTYPE svg PUBLIC "-//W3C//DTD SVG 1.1//EN" "http://www.w3.org/Graphics/SVG/1.1/DTD/svg11.dtd" [
	<!ENTITY ns_flows "http://ns.adobe.com/Flows/1.0/">
]>
<svg version="1.1"
	 xmlns="http://www.w3.org/2000/svg" xmlns:xlink="http://www.w3.org/1999/xlink" xmlns:a="http://ns.adobe.com/AdobeSVGViewerExtensions/3.0/"
	 x="0px" y="0px" width="50px" height="50px" viewBox="0 0 50 50" enable-background="new 0 0 50 50" xml:space="preserve">
<defs>
</defs>
<path d="M6.528,20.92V0H0v50h6.528V26.558h12.36c0-1.88,0-3.759,0-5.638H6.528z"/>
<path d="M21.09,0v20.92H9.267c0,1.879,0,3.758,0,5.638H21.09V50h6.528V0H21.09z"/>
<path d="M27.499,41.603c2.415,1.794,5.883,3.158,9.598,3.158c5.512,0,8.731-3.374,8.731-8.254c0-4.45-2.229-7.105-7.864-9.545
	c-6.812-2.871-11.023-7.034-11.023-13.78c0-7.537,5.387-13.134,13.5-13.134c4.211,0,7.37,1.148,9.166,2.368L48.12,7.51
	c-1.3-0.933-4.087-2.296-7.864-2.296c-5.698,0-7.866,3.947-7.866,7.249c0,4.521,2.539,6.747,8.298,9.331
	c7.06,3.159,10.59,7.105,10.59,14.212C51.279,43.468,46.572,50,36.726,50c-4.024,0-8.422-1.436-10.651-3.158L27.499,41.603z"/>
</svg>
