<?xml version="1.0" encoding="utf-8"?>
<!-- Generator: Adobe Illustrator 15.0.0, SVG Export Plug-In  -->
<!DOCTYPE svg PUBLIC "-//W3C//DTD SVG 1.1//EN" "http://www.w3.org/Graphics/SVG/1.1/DTD/svg11.dtd" [
	<!ENTITY ns_flows "http://ns.adobe.com/Flows/1.0/">
]>
<svg version="1.1"
	 xmlns="http://www.w3.org/2000/svg" xmlns:xlink="http://www.w3.org/1999/xlink" xmlns:a="http://ns.adobe.com/AdobeSVGViewerExtensions/3.0/"
	 x="0px" y="0px" width="50px" height="50px" viewBox="0 0 50 50" enable-background="new 0 0 50 50" xml:space="preserve">
<defs>
</defs>
<path d="M50.204,27.51v-4.947l-8.785-2.312c-0.347-1.149-0.809-2.248-1.373-3.281l4.629-7.935l-3.499-3.498l-7.899,4.609
	c-1.071-0.593-2.212-1.073-3.407-1.424L27.576,0h-4.948l-2.294,8.722c-1.181,0.348-2.309,0.82-3.369,1.403L9.101,5.538L5.604,9.036
	l4.591,7.87c-0.58,1.053-1.055,2.173-1.409,3.346L0,22.563v4.947l8.623,2.269c0.345,1.305,0.836,2.549,1.457,3.712l-4.403,7.547
	l3.498,3.498l7.365-4.296c1.216,0.715,2.526,1.283,3.908,1.679l2.18,8.286h4.948l2.18-8.286c1.396-0.399,2.719-0.976,3.944-1.701
	l7.402,4.319l3.499-3.498l-4.442-7.613c0.604-1.145,1.084-2.366,1.422-3.646L50.204,27.51z M25.102,29.046
	c-2.067,0-3.743-1.676-3.743-3.744c0-2.067,1.676-3.743,3.743-3.743c2.068,0,3.744,1.676,3.744,3.743
	C28.845,27.371,27.169,29.046,25.102,29.046z"/>
</svg>
