<?xml version="1.0" encoding="utf-8"?>
<!-- Generator: Adobe Illustrator 15.0.0, SVG Export Plug-In  -->
<!DOCTYPE svg PUBLIC "-//W3C//DTD SVG 1.1//EN" "http://www.w3.org/Graphics/SVG/1.1/DTD/svg11.dtd" [
	<!ENTITY ns_flows "http://ns.adobe.com/Flows/1.0/">
]>
<svg version="1.1"
	 xmlns="http://www.w3.org/2000/svg" xmlns:xlink="http://www.w3.org/1999/xlink" xmlns:a="http://ns.adobe.com/AdobeSVGViewerExtensions/3.0/"
	 x="0px" y="0px" width="50px" height="50px" viewBox="-8.354 0.058 50 50" enable-background="new -8.354 0.058 50 50"
	 xml:space="preserve">
<defs>
</defs>
<path d="M8.988,32.572h15.316c1.429,0,2.588-1.159,2.588-2.588V2.588C26.893,1.159,25.733,0,24.304,0H8.988
	c-1.43,0-2.589,1.159-2.589,2.588v27.396C6.399,31.414,7.559,32.572,8.988,32.572z"/>
<path d="M33.292,12.439c0-0.835-0.676-1.51-1.51-1.51c-0.833,0-1.51,0.675-1.51,1.51v23.513H3.02V12.439
	c0-0.835-0.676-1.51-1.51-1.51c-0.834,0-1.51,0.675-1.51,1.51v24.879c0,0.026,0.002,0.052,0.003,0.078
	C0.002,37.418,0,37.44,0,37.462c0,0.834,0.807,1.51,1.802,1.51h13.334v8.125H8.342c-0.556,0-1.008,0.676-1.008,1.51
	s0.452,1.51,1.008,1.51H24.95c0.556,0,1.008-0.676,1.008-1.51s-0.452-1.51-1.008-1.51h-6.794v-8.125H31.49
	c0.995,0,1.802-0.676,1.802-1.51c0-0.022-0.002-0.044-0.003-0.065c0.001-0.026,0.003-0.052,0.003-0.078V12.439z"/>
</svg>
