<?xml version="1.0" encoding="utf-8"?>
<!-- Generator: Adobe Illustrator 15.0.0, SVG Export Plug-In  -->
<!DOCTYPE svg PUBLIC "-//W3C//DTD SVG 1.1//EN" "http://www.w3.org/Graphics/SVG/1.1/DTD/svg11.dtd" [
	<!ENTITY ns_flows "http://ns.adobe.com/Flows/1.0/">
]>
<svg version="1.1"
	 xmlns="http://www.w3.org/2000/svg" xmlns:xlink="http://www.w3.org/1999/xlink" xmlns:a="http://ns.adobe.com/AdobeSVGViewerExtensions/3.0/"
	 x="0px" y="0px" width="50px" height="50px" viewBox="0.072 0.049 50 50" enable-background="new 0.072 0.049 50 50"
	 xml:space="preserve">
<defs>
</defs>
<path d="M29.535,4.485c0,0-11.411,8.002-3.51,23.918c7.9,15.917,4.145,21.693,4.145,21.693h-1.974c0,0,3.756-5.777-4.145-21.693
	c-7.901-15.916,3.886-23.933,3.886-23.933L29.535,4.485z"/>
<path d="M27.688,5.364c-1.866-0.691-3.677-1.231-5.69-0.659c-2.207,0.626-3.812,2.139-5.435,3.557
	c-2.953,2.58-6.212,4.575-10.46,4.434c-0.5-0.016-0.502-0.724,0-0.708c2.495,0.083,4.816-0.555,6.855-1.87
	c1.894-1.222,3.376-2.822,5.16-4.154c1.348-1.006,2.866-1.937,4.642-2.121c1.861-0.193,3.632,0.295,5.342,0.92
	C27.563,1.012,15.666-3.232,9.585,3.714C2.979,11.259,0,9.373,0,9.373c4.403,11.908,16.45,6.485,20.982,1.062
	C25.516,5.011,27.688,5.364,27.688,5.364"/>
<path d="M27.886,4.519c0,0,11.507-4.662,15.911,7.6c3.224,8.976,5.129,10.054,5.918,9.987c-2.514,1.14-15.42,6.344-19.388-4.917
	c0,0-0.259-3.302,0.258-7.074c0.443-3.224,0.471-3.93-1.784-5.03c2.205,0.136,4.137,1.117,5.401,2.816
	c1.26,1.691,1.104,3.714,1.645,5.615c0.938,3.297,3.71,5.384,7.069,6.608c0.466,0.169,0.667-0.515,0.207-0.683
	c-2.027-0.738-3.879-1.782-5.171-3.417c-1.32-1.67-1.497-3.541-1.854-5.498c-0.651-3.572-3.731-6.064-7.76-6.035L27.886,4.519z"/>
<path d="M50.144,21.979c0,0-0.153,0.077-0.429,0.201C50.003,22.156,50.144,21.979,50.144,21.979z"/>
</svg>
